<svg width="134" height="134" viewBox="0 0 134 134" fill="none" xmlns="http://www.w3.org/2000/svg">
<path d="M59.1336 132.211L59.8569 121.924L61.3941 122.013L63.3833 127.202C63.6545 128.007 64.0162 129.08 64.197 129.796H64.2874C64.2874 128.722 64.2874 127.202 64.3779 126.218L64.6491 122.282L66.0958 122.371L65.3725 132.658L63.8354 132.569L61.8462 127.202C61.5749 126.486 61.3036 125.502 61.0324 124.876H60.942C61.0324 125.86 60.942 127.47 60.942 128.365L60.6707 132.39L59.1336 132.211Z" fill="#982420"/>
<path d="M52.8041 122.014L53.0754 120.672L58.2292 121.656L56.24 131.764L51.267 130.78L51.5383 129.438L55.0646 130.154L55.6975 127.202L52.4425 126.576L52.7137 125.234L55.9688 125.86L56.6017 122.819L52.8041 122.014Z" fill="#982420"/>
<path d="M47.47 121.119L50.0922 121.924L51.1772 120.135L52.7143 120.582L47.0179 129.528L45.4808 128.991L46.2042 118.436L47.6509 118.883L47.47 121.119ZM47.2892 122.461L47.0179 125.323C46.9275 126.039 46.8371 127.023 46.6563 127.56C46.9275 127.023 47.3796 126.218 47.7413 125.592L49.188 123.177L47.2892 122.461Z" fill="#982420"/>
<path d="M41.5928 120.492L42.4065 120.85L44.0341 117.451L45.3904 118.077L40.9598 127.38L38.5186 126.217C36.7102 125.412 36.1677 123.802 37.0719 122.013C37.7952 120.582 38.8802 119.866 40.1461 119.956L39.7844 115.483L41.3215 116.199L41.5928 120.492ZM41.864 122.192L40.779 121.745C39.7844 121.298 39.0611 121.655 38.5186 122.818C37.976 123.981 38.2473 124.697 39.1515 125.144L40.2365 125.681L41.864 122.192Z" fill="#982420"/>
<path d="M25.3172 118.257L31.3752 109.938L32.5507 110.832L31.4656 116.289C31.2848 117.094 31.0136 118.167 30.8327 118.883H30.9231C31.4656 117.988 32.2794 116.736 32.9123 115.931L35.2632 112.711L36.4387 113.605L30.3806 121.924L29.2052 121.03L30.3806 115.394C30.5615 114.679 30.8327 113.695 30.9231 112.979H30.8327C30.2902 113.874 29.4764 115.126 28.9339 115.931L26.5831 119.151L25.3172 118.257Z" fill="#982420"/>
<path d="M27.9394 111.368L25.3173 114.052C23.7802 115.572 22.0622 115.751 20.6155 114.409C19.1688 113.068 19.2592 111.278 20.7059 109.758L23.3281 107.074C24.8652 105.553 26.5831 105.375 28.0298 106.716C29.5669 108.058 29.4765 109.847 27.9394 111.368ZM24.5035 108.148L21.8814 110.831C20.9772 111.726 20.8868 112.62 21.7005 113.425C22.5143 114.141 23.3281 114.052 24.2323 113.068L26.8544 110.384C27.7586 109.489 27.849 108.595 27.0352 107.79C26.3119 107.074 25.4077 107.164 24.5035 108.148Z" fill="#982420"/>
<path d="M20.254 104.123L20.8869 104.838L23.7803 102.513L24.6845 103.675L16.6372 110.116L14.9193 108.059C13.6534 106.538 13.8343 104.928 15.4618 103.675C16.7276 102.691 17.9935 102.513 19.0785 103.139L20.7061 98.9344L21.7911 100.187L20.254 104.123ZM19.7115 105.733L18.9881 104.838C18.3552 104.033 17.451 104.033 16.4564 104.838C15.4618 105.643 15.3714 106.448 16.0043 107.254L16.7276 108.148L19.7115 105.733Z" fill="#982420"/>
<path d="M10.0361 98.4875L11.2116 100.277L18.8067 95.5356L19.6205 96.7879L12.0253 101.529L13.2008 103.318L12.0253 104.034L8.77026 99.2926L10.0361 98.4875Z" fill="#982420"/>
<path d="M5.24451 92.136L14.5576 87.6634L15.1905 89.0052L11.1217 90.9731L12.3876 93.5673L16.4564 91.5993L17.0893 92.9411L7.6858 97.3243L7.05287 95.9825L11.0313 94.104L9.76542 91.5098L5.78702 93.3883L5.24451 92.136Z" fill="#982420"/>
<path d="M0.903809 77.9134L11.0307 75.4982L11.3923 76.9295L7.41393 77.824C6.23849 78.0924 5.15347 78.2713 4.15887 78.4502V78.5396C5.06305 78.6291 6.05765 78.7185 7.05226 78.8974L9.58397 79.2552L9.94564 80.6865L7.86602 82.1177C7.05226 82.6544 6.14807 83.2806 5.42473 83.7279V83.8173C6.50975 83.549 7.50435 83.1912 8.67979 82.9228L12.6582 82.0283L13.0199 83.4595L2.80259 85.6958L2.44092 84.2646L6.14807 81.581C6.69058 81.2232 7.59477 80.6865 7.95644 80.4181V80.3287C7.41393 80.2392 6.41933 80.1498 5.7864 80.0603L1.26548 79.3447L0.903809 77.9134Z" fill="#982420"/>
<path d="M8.95142 68.7891L10.3981 68.6996L10.8502 73.8879L0.54251 74.7824L0 69.7731L1.44669 69.6836L1.80837 73.2617L4.79217 72.9934L4.52092 69.7731L5.87719 69.6836L6.14845 72.9039L9.31309 72.6356L8.95142 68.7891Z" fill="#982420"/>
<path d="M8.31849 63.5113L8.22807 66.1949L10.3077 66.7316V68.2523L0 65.4792V63.8691L10.3981 61.5433V63.064L8.31849 63.5113ZM6.96221 63.7797L4.15924 64.3164C3.4359 64.4058 2.4413 64.5847 1.89879 64.6742C2.4413 64.7636 3.4359 64.9425 4.06883 65.1214L6.87179 65.8371L6.96221 63.7797Z" fill="#982420"/>
<path d="M2.35089 55.1026L2.07963 57.2495L10.9406 58.4124L10.7598 59.933L1.8988 58.7702L1.62754 60.8276L0.180847 60.6487L0.904194 54.9237L2.35089 55.1026Z" fill="#982420"/>
<path d="M8.49925 55.1917L8.86093 53.7605C9.94595 54.0289 10.5789 53.5816 10.7597 52.6871C11.031 51.7031 10.5789 51.1664 9.76511 50.898C7.77591 50.3613 6.60047 54.5656 3.61666 53.85C2.16997 53.4921 1.3562 52.1504 1.71788 50.4508C2.16997 48.7512 3.52624 47.9461 5.24419 48.3933L4.88252 49.8246C3.88792 49.6457 3.34541 50.0035 3.16457 50.8086C2.98373 51.6136 3.34541 52.2398 4.06875 52.4187C6.05796 52.866 7.05256 48.7512 10.2172 49.4668C11.7543 49.8246 12.7489 51.1664 12.2968 53.0449C11.7543 54.7445 10.398 55.639 8.49925 55.1917Z" fill="#982420"/>
<path d="M5.06293 36.6755L15.8227 46.4259L15.3706 47.5888L4.61084 37.8384L5.06293 36.6755Z" fill="#982420"/>
<path d="M12.7491 27.2831L21.4293 32.9186L20.6155 34.1709L15.1 33.2764C14.2862 33.0975 13.1108 32.9186 12.4778 32.7397V32.8291C13.382 33.2764 14.7383 34.0815 15.5521 34.6182L18.8976 36.7651L18.0838 38.0174L9.40363 32.3819L10.2174 31.1295L15.9137 32.0241C16.6371 32.1135 17.7221 32.3819 18.355 32.4713V32.3819C17.4509 31.9346 16.0946 31.1295 15.2808 30.6823L11.9353 28.446L12.7491 27.2831Z" fill="#982420"/>
<path d="M24.8649 26.7464L25.9499 27.641L22.514 31.5769L14.6476 24.8679L17.9931 21.0215L19.0781 21.916L16.7272 24.5996L18.9877 26.5675L21.1577 24.0629L22.2427 24.9574L20.0727 27.4621L22.514 29.5195L24.8649 26.7464Z" fill="#982420"/>
<path d="M28.3012 22.6314L26.2216 24.4204L27.3066 26.2989L26.1312 27.3724L21.0677 18.0693L22.2432 16.9958L31.1946 22.8103L30.0192 23.8837L28.3012 22.6314ZM27.1258 21.8263L24.7749 20.2161C24.2324 19.8583 23.4186 19.2322 22.9665 18.8744C23.2378 19.3216 23.8707 20.1267 24.142 20.7529L25.5887 23.1681L27.1258 21.8263Z" fill="#982420"/>
<path d="M31.6461 17.8903L30.9227 18.427L33.0928 21.4684L31.9173 22.3629L25.8593 14.0438L28.0294 12.5232C29.6569 11.3603 31.2844 11.7181 32.4599 13.3282C33.364 14.67 33.4545 15.9224 32.8215 16.9063L36.9808 18.7848L35.6245 19.6794L31.6461 17.8903ZM30.109 17.2641L31.0132 16.638C31.8269 16.0118 31.9173 15.2067 31.194 14.1333C30.4707 13.1493 29.6569 12.9704 28.8431 13.5966L27.8485 14.3122L30.109 17.2641Z" fill="#982420"/>
<path d="M41.5928 4.9198L45.9329 14.2229L44.5766 14.849L40.327 11.2709C39.6941 10.7342 38.8803 9.92915 38.3378 9.39243C38.8803 10.287 39.6036 11.6287 39.9653 12.5233L41.6833 16.1014L40.327 16.7275L36.0773 7.42447L37.4336 6.7983L41.8641 10.5553C42.4066 11.092 43.2204 11.7182 43.6725 12.1655V12.076C43.13 11.1815 42.4066 9.83969 42.0449 9.03462L40.327 5.36706L41.5928 4.9198Z" fill="#982420"/>
<path d="M46.3841 10.5554L45.2991 6.97734C44.6661 4.91993 45.3895 3.30978 47.2883 2.77307C49.1871 2.23635 50.7242 3.13088 51.3571 5.18829L52.4421 8.76639C53.0751 10.8238 52.3517 12.4339 50.4529 12.9707C48.5541 13.5074 47.017 12.6129 46.3841 10.5554ZM50.9954 9.21366L49.9104 5.63555C49.5487 4.38322 48.8254 3.8465 47.7404 4.20431C46.7458 4.56212 46.3841 5.36719 46.7458 6.61953L47.8308 10.1976C48.1925 11.45 48.9158 11.9867 50.0008 11.6289C50.9954 11.2711 51.3571 10.3765 50.9954 9.21366Z" fill="#982420"/>
<path d="M56.6023 7.51448L55.6981 7.69339L56.331 11.3609L54.8843 11.6293L53.1664 1.43171L55.7885 0.984443C57.7777 0.626632 59.0436 1.61061 59.4052 3.66802C59.6765 5.27817 59.2244 6.44105 58.049 7.06722L60.9424 10.5559L59.3148 10.8242L56.6023 7.51448ZM55.4268 6.26215L56.6023 6.08324C57.5969 5.90434 58.049 5.18872 57.8681 3.93638C57.6873 2.7735 57.0544 2.23678 55.9693 2.41568L54.7939 2.59459L55.4268 6.26215Z" fill="#982420"/>
<path d="M66.548 1.43124L64.378 1.52069L64.83 10.3765L63.2929 10.466L62.8408 1.61015L60.6708 1.6996L60.5804 0.268358L66.4576 0L66.548 1.43124Z" fill="#982420"/>
<path d="M74.5042 0.447263L73.7809 10.7343L72.3342 10.5554L72.6054 6.08278L69.7121 5.90387L69.4408 10.3765L67.9037 10.287L68.627 0L70.1641 0.0894526L69.8025 4.47263L72.6959 4.65154L72.9671 0.268358L74.5042 0.447263Z" fill="#982420"/>
<path d="M89.1522 3.66782L86.3493 13.5076L84.9026 13.1498L85.9876 9.30334C86.3493 8.14045 86.6205 7.15647 86.9822 6.1725H86.8918C86.3493 6.88812 85.8068 7.69319 85.1738 8.49826L83.6367 10.4662L82.19 10.1084L81.9188 7.60374C81.8283 6.61976 81.7379 5.63578 81.6475 4.74125H81.5571C81.2858 5.81468 81.0146 6.79866 80.7433 7.96155L79.6583 11.808L78.2116 11.4502L81.0146 1.61041L82.4613 2.05768L83.0038 6.53031C83.0942 7.15647 83.1846 8.2299 83.1846 8.67717H83.275C83.5463 8.2299 84.1792 7.42483 84.5409 6.88812L87.3439 3.31001L89.1522 3.66782Z" fill="#982420"/>
<path d="M93.312 15.1177L92.7695 16.3701L87.9774 14.2232L92.227 4.83069L96.8384 6.8881L96.2958 8.14043L93.0408 6.70919L91.7749 9.39277L94.7587 10.7346L94.2162 11.9869L91.2324 10.6451L89.9666 13.5076L93.312 15.1177Z" fill="#982420"/>
<path d="M98.1942 17.1747L95.8434 15.7435L94.3967 17.2642L93.0404 16.4591L100.636 8.94507L101.992 9.75014L98.9176 19.8583L97.5613 19.0532L98.1942 17.1747ZM98.6463 15.8329L99.5505 13.1493C99.7314 12.5232 100.183 11.5392 100.364 11.0919C100.003 11.5392 99.3697 12.2548 98.9176 12.7915L96.9284 14.8489L98.6463 15.8329Z" fill="#982420"/>
<path d="M108.593 16.1019L106.875 14.8495L101.54 21.9163L100.274 21.0218L105.609 13.955L103.891 12.7027L104.705 11.5398L109.407 15.0284L108.593 16.1019Z" fill="#982420"/>
<path d="M105.428 21.3793L106.513 22.4527C105.79 23.2578 105.88 23.9734 106.513 24.5996C107.237 25.3152 107.96 25.1363 108.593 24.5996C110.04 23.0789 106.965 20.127 109.045 17.8907C110.04 16.8172 111.667 16.7278 112.933 17.8907C114.199 19.0535 114.199 20.6637 113.023 21.916L111.938 20.8426C112.571 20.127 112.571 19.4113 111.938 18.8746C111.305 18.3379 110.673 18.3379 110.13 18.8746C108.774 20.3059 111.938 23.2578 109.678 25.5836C108.593 26.657 106.965 26.9254 105.519 25.5836C104.253 24.4207 104.162 22.7211 105.428 21.3793Z" fill="#982420"/>
<path d="M123.421 27.5514L109.587 32.1134L108.773 31.1295L122.698 26.5674L123.421 27.5514Z" fill="#982420"/>
<path d="M127.942 38.7329L118.719 43.4739L117.996 42.1321L121.432 37.7489C121.974 37.1227 122.698 36.2282 123.24 35.6915H123.15C122.246 36.2282 120.889 37.0333 120.076 37.4806L116.549 39.2696L115.826 37.9278L125.049 33.1868L125.772 34.5286L122.155 39.0012C121.703 39.6274 120.98 40.343 120.528 40.8797H120.618C121.432 40.343 122.788 39.538 123.602 39.0907L127.219 37.3016L127.942 38.7329Z" fill="#982420"/>
<path d="M122.517 49.4673L121.161 49.9146L119.352 45.0841L129.117 41.5955L130.835 46.3364L129.479 46.7837L128.213 43.474L125.41 44.4579L126.495 47.4993L125.229 47.9466L124.144 44.9052L121.161 45.9786L122.517 49.4673Z" fill="#982420"/>
<path d="M124.416 54.3869L123.783 51.7034H121.613L121.251 50.1827L131.92 50.3616L132.282 51.8823L122.788 56.7127L122.426 55.192L124.416 54.3869ZM125.682 53.7608L128.213 52.5084C128.846 52.2401 129.75 51.7928 130.293 51.6139C129.75 51.7034 128.756 51.7034 128.032 51.7034H125.139L125.682 53.7608Z" fill="#982420"/>
<path d="M126.948 59.6652L126.857 58.7706L123.15 59.1285L122.969 57.6972L133.277 56.6238L133.548 59.3074C133.729 61.2753 132.735 62.5276 130.655 62.7066C129.027 62.8855 127.852 62.3487 127.31 61.1859L123.602 63.78L123.422 62.1698L126.948 59.6652ZM128.304 58.5917L128.395 59.7546C128.485 60.8281 129.208 61.2753 130.474 61.0964C131.74 61.007 132.283 60.3808 132.192 59.3074L132.102 58.1445L128.304 58.5917Z" fill="#982420"/>
<path d="M133.457 74.6032L123.149 73.7981L123.24 72.2774L128.484 70.3989C129.298 70.1305 130.383 69.7727 131.106 69.5938V69.5044C130.021 69.5044 128.484 69.5044 127.489 69.4149L123.511 69.1466L123.602 67.7153L133.909 68.5204L133.819 70.0411L128.394 72.0091C127.67 72.2774 126.676 72.5458 126.043 72.7247V72.8141C127.037 72.8141 128.665 72.8141 129.569 72.9036L133.638 73.2614L133.457 74.6032Z" fill="#982420"/>
<path d="M126.134 75.9458L129.841 76.7509C131.921 77.1982 133.006 78.6294 132.554 80.5079C132.102 82.3864 130.565 83.281 128.485 82.8337L124.778 82.0286C122.698 81.5814 121.613 80.1501 122.065 78.1822C122.517 76.3931 124.055 75.4986 126.134 75.9458ZM125.14 80.5974L128.847 81.4025C130.113 81.6708 130.926 81.313 131.198 80.2396C131.469 79.1661 130.836 78.54 129.57 78.2716L125.863 77.4665C124.597 77.1982 123.783 77.556 123.512 78.6294C123.241 79.6134 123.874 80.329 125.14 80.5974Z" fill="#982420"/>
<path d="M123.873 86.2323L124.144 85.3378L120.618 84.0854L121.16 82.6542L130.925 86.1428L130.021 88.6475C129.388 90.526 127.851 91.1522 125.952 90.4365C124.415 89.8998 123.601 88.9159 123.601 87.6635L119.081 88.4686L119.623 86.9479L123.873 86.2323ZM125.5 85.8745L125.139 86.9479C124.777 87.9319 125.229 88.6475 126.404 89.0948C127.58 89.542 128.303 89.1842 128.665 88.2002L129.027 87.1268L125.5 85.8745Z" fill="#982420"/>
<path d="M124.325 97.8611L125.32 95.9826L117.273 92.0467L117.996 90.7049L126.043 94.6408L127.038 92.7623L128.304 93.3885L125.681 98.5767L124.325 97.8611Z" fill="#982420"/>
<path d="M121.251 105.196L112.571 99.5608L113.384 98.3085L117.182 100.813L118.809 98.3979L115.012 95.8933L115.826 94.6409L124.506 100.276L123.692 101.529L119.985 99.1136L118.357 101.529L122.064 103.944L121.251 105.196Z" fill="#982420"/>
<path d="M111.215 116.199L103.891 108.953L104.976 107.969L107.869 110.832C108.683 111.726 109.407 112.442 110.13 113.247H110.22C109.859 112.442 109.407 111.547 109.045 110.653L108.05 108.327L109.135 107.254L111.396 108.238C112.3 108.685 113.204 109.043 114.018 109.49V109.401C113.204 108.685 112.39 107.969 111.577 107.164L108.683 104.302L109.768 103.318L117.092 110.563L116.007 111.637L111.757 109.937C111.215 109.669 110.22 109.222 109.768 109.043C109.949 109.49 110.401 110.474 110.672 111.011L112.39 115.215L111.215 116.199Z" fill="#982420"/>
<path d="M99.1891 114.142L98.3754 112.979L102.625 109.938L108.773 118.167L104.705 121.119L103.891 119.956L106.784 117.81L104.976 115.394L102.354 117.362L101.54 116.289L104.162 114.321L102.263 111.816L99.1891 114.142Z" fill="#982420"/>
<path d="M94.9395 117.362L97.2903 116.02L96.6574 113.962L98.0137 113.157L100.907 123.355L99.4604 124.16L92.0461 116.557L93.4024 115.752L94.9395 117.362ZM95.8436 118.435L97.8328 120.493C98.2849 121.029 98.9179 121.745 99.2795 122.192C99.0987 121.655 98.737 120.761 98.4658 120.135L97.652 117.451L95.8436 118.435Z" fill="#982420"/>
<path d="M90.7798 126.844L92.769 125.949L89.1523 117.809L90.5086 117.183L94.1253 125.323L96.1145 124.428L96.657 125.681L91.3223 128.006L90.7798 126.844Z" fill="#982420"/>
<path d="M87.6152 121.566L86.1685 122.014C85.8068 121.03 85.0835 120.672 84.2697 120.94C83.3655 121.209 83.0038 121.924 83.2751 122.729C83.908 124.697 88.0673 123.534 88.9714 126.397C89.4235 127.828 88.7002 129.17 87.0727 129.707C85.3547 130.243 83.9984 129.438 83.4559 127.828L84.9026 127.381C85.2643 128.275 85.8972 128.633 86.6206 128.365C87.4343 128.096 87.796 127.56 87.5248 126.844C86.8918 124.966 82.7326 126.218 81.8284 123.177C81.3763 121.745 82.0092 120.135 83.8176 119.598C85.626 119.062 87.0727 119.777 87.6152 121.566Z" fill="#982420"/>
<path d="M73.4193 133.999L76.3127 119.776L77.5786 119.597L74.6852 133.82L73.4193 133.999Z" fill="#982420"/>
<path fill-rule="evenodd" clip-rule="evenodd" d="M66.7855 83.5505V47.0883L66.7831 47.0835L63.4565 53.3423C63.1357 54.131 62.5015 53.968 61.7094 53.6587L59.3329 52.405L61.2307 62.1061C61.5514 63.8248 60.2806 63.8248 59.8092 63.0482L55.5228 58.3522L54.8886 60.6966C54.8886 61.0058 54.4099 61.3294 53.9385 61.3294L48.7019 60.2244L50.1356 65.3901C50.4491 66.488 50.607 66.9602 49.8149 67.2694L47.9098 68.2067L56.9516 75.7168C57.2723 76.0332 57.5858 76.5054 57.4303 76.9705L56.6381 79.6313C59.6488 79.3196 62.504 79.0104 65.6775 78.694C65.8354 78.694 66.3117 78.8546 66.3117 79.1662L65.9909 83.5505H66.7855Z" fill="#982420"/>
<path fill-rule="evenodd" clip-rule="evenodd" d="M66.786 83.5505V47.0883L66.7884 47.0835L70.115 53.3423C70.4357 54.131 71.0699 53.968 71.8621 53.6587L74.2386 52.405L72.3408 62.1061C72.0201 63.8248 73.2909 63.8248 73.7623 63.0482L78.0487 58.3522L78.6829 60.6966C78.6829 61.0058 79.1616 61.3294 79.633 61.3294L84.8695 60.2244L83.4359 65.3901C83.1224 66.488 82.9645 66.9602 83.7566 67.2694L85.6617 68.2067L76.6199 75.7168C76.2992 76.0332 75.9857 76.5054 76.1412 76.9705L76.9334 79.6313C73.9227 79.3196 71.0675 79.0104 67.894 78.694C67.7361 78.694 67.2598 78.8546 67.2598 79.1662L67.5806 83.5505H66.786Z" fill="#982420"/>
</svg>
