<svg width="100" height="90" viewBox="0 0 100 90" fill="none" xmlns="http://www.w3.org/2000/svg">
<g clip-path="url(#clip0)">
<path d="M58.6634 31.3811H55.5364C54.9377 29.6141 54.3972 28.0274 53.9147 26.6208C53.7171 26.0163 53.5253 25.4351 53.3277 24.8713C53.1301 24.3075 52.9557 23.7961 52.7988 23.3369C52.6418 22.8835 52.4675 22.3779 52.2699 21.8315C52.2699 21.8141 52.2641 22.0175 52.2582 22.4476C52.2524 22.8777 52.2408 23.4241 52.235 24.0867C52.2292 24.7551 52.2234 25.4816 52.2234 26.2721C52.2234 27.0626 52.2234 27.8181 52.2234 28.5272C52.2234 29.2363 52.2234 29.8583 52.2234 30.3872C52.2234 30.9161 52.2234 31.2474 52.2234 31.3694H49.0731V11.8228H52.2001L55.484 21.9187C55.484 21.9013 55.484 21.6455 55.484 21.1515C55.484 20.6574 55.484 20.0413 55.484 19.2916C55.484 18.5418 55.4899 17.7397 55.4957 16.8737C55.5015 16.0076 55.5073 15.1997 55.5073 14.4558C55.5073 13.706 55.5073 12.8341 55.5073 11.8286H58.6575V31.3811H58.6634Z" fill="#982420"/>
<path d="M66.3297 23.2846H65.0917L63.8769 23.3136V27.5798C64.0106 27.5798 64.2198 27.5798 64.5046 27.5798C64.7894 27.5798 65.1033 27.5798 65.4404 27.5798C65.7775 27.5798 66.1146 27.5857 66.4518 27.5915C66.7889 27.6031 67.0795 27.6031 67.3178 27.6031V31.3752H60.6802V11.8228H67.3178V15.595H63.8304V19.5066H66.3297V23.2846Z" fill="#982420"/>
<path d="M74.4961 31.3811C74.4787 31.3288 74.4613 31.1718 74.4264 30.9161C74.3973 30.6603 74.3625 30.3755 74.3276 30.0675C74.2927 29.7594 74.252 29.4456 74.2171 29.1375C74.1823 28.8295 74.1474 28.5796 74.1183 28.3994H71.6656C71.6481 28.4924 71.6307 28.6784 71.5958 28.9573C71.5668 29.2421 71.5261 29.5444 71.4854 29.8757C71.4389 30.2012 71.404 30.515 71.375 30.8056C71.3459 31.0963 71.3226 31.2881 71.3052 31.3811H68.1317C68.7188 27.7542 69.2477 24.5168 69.7301 21.6688C69.9219 20.4482 70.1195 19.2509 70.3171 18.0884C70.5089 16.9202 70.6833 15.8798 70.8344 14.9556C70.9855 14.0373 71.1018 13.2875 71.1948 12.7121C71.282 12.1367 71.3285 11.8402 71.3285 11.8228H74.5019C75.089 15.4322 75.6121 18.6638 76.0771 21.506C76.2689 22.7092 76.4607 23.8949 76.6525 25.0631C76.8385 26.2314 77.007 27.2776 77.1581 28.2076C77.3093 29.1375 77.4313 29.8873 77.5301 30.4627C77.6289 31.0381 77.6754 31.3404 77.6754 31.3811H74.4961ZM72.7641 19.2334C72.7176 19.5415 72.6711 19.9018 72.6188 20.3029C72.5665 20.7039 72.52 21.1166 72.4735 21.5351C72.3514 22.5174 72.2177 23.6333 72.0666 24.8713H73.7057C73.5545 23.6333 73.4209 22.529 73.2988 21.5642C73.2523 21.1457 73.2116 20.7388 73.1651 20.3494C73.1186 19.96 73.0779 19.6054 73.0431 19.2974C73.0082 18.9893 72.9559 18.6348 72.8978 18.2279C72.8513 18.5883 72.8048 18.9254 72.7641 19.2334Z" fill="#982420"/>
<path d="M84.0277 31.3811C83.9812 30.7766 83.9522 30.0849 83.9405 29.3003C83.9231 28.5156 83.894 27.7542 83.8417 27.0161C83.7894 26.2779 83.7022 25.6269 83.5802 25.0631C83.4581 24.4993 83.2779 24.1506 83.0396 24.0227H81.8714C81.8714 24.7551 81.8714 25.3886 81.8714 25.935C81.8714 26.4813 81.8656 27.0684 81.8598 27.7019C81.8539 28.3296 81.8481 28.9167 81.8481 29.4688C81.8481 30.0152 81.8481 30.6545 81.8481 31.3811H78.6979V11.8228H79.5988H80.6566C81.5866 11.8228 82.441 11.8693 83.2198 11.9623C83.9987 12.0553 84.6671 12.311 85.2192 12.7295C85.7714 13.148 86.2015 13.7932 86.5038 14.6592C86.806 15.5252 86.9339 16.7342 86.8874 18.286C86.8699 19.123 86.8118 19.7972 86.7072 20.3087C86.6026 20.8202 86.4921 21.2154 86.3701 21.5002C86.248 21.785 86.1318 21.9943 86.0097 22.1279C85.8877 22.2674 85.8005 22.3779 85.7423 22.4709C86.1318 22.9068 86.4108 23.4473 86.5735 24.0867C86.7362 24.726 86.8525 25.4293 86.9106 26.2081C86.9687 26.9812 87.0094 27.8123 87.021 28.6958C87.0385 29.5793 87.0908 30.4802 87.178 31.3927H84.0277V31.3811ZM83.5569 20.1343C83.6151 19.9135 83.6616 19.6229 83.6906 19.2567C83.7197 18.8905 83.7313 18.5069 83.7255 18.1059C83.7197 17.7048 83.6906 17.3154 83.6383 16.9434C83.586 16.5714 83.5046 16.2808 83.4 16.0832C83.2954 15.8856 83.1617 15.7344 83.0048 15.6298C82.8478 15.531 82.6909 15.4613 82.534 15.4264C82.377 15.3915 82.2375 15.3741 82.1155 15.3741C81.9934 15.3741 81.9121 15.3741 81.8656 15.3741C81.8656 16.2517 81.8656 17.0713 81.8656 17.8385C81.883 18.4778 81.8888 19.1114 81.8888 19.7391C81.8888 20.3668 81.883 20.8086 81.8656 21.0643C82.0167 21.0643 82.1794 21.0585 82.348 21.0527C82.5223 21.041 82.6851 21.012 82.842 20.9597C82.999 20.9074 83.1443 20.8144 83.2721 20.6865C83.4058 20.5586 83.4988 20.3726 83.5569 20.1343Z" fill="#982420"/>
<path d="M58.6634 54.9788H55.5364C54.9377 53.2119 54.3972 51.6251 53.9147 50.2186C53.7171 49.6141 53.5253 49.0329 53.3277 48.4691C53.1301 47.9053 52.9557 47.3938 52.7988 46.9346C52.6418 46.4813 52.4675 45.9756 52.2699 45.4293C52.2699 45.4118 52.2641 45.6152 52.2582 46.0454C52.2524 46.4755 52.2408 47.0218 52.235 47.6844C52.2292 48.3528 52.2234 49.0794 52.2234 49.8698C52.2234 50.6603 52.2234 51.4159 52.2234 52.125C52.2234 52.8341 52.2234 53.456 52.2234 53.9849C52.2234 54.5138 52.2234 54.8451 52.2234 54.9672H49.0731V35.4205H52.2001L55.484 45.5164C55.484 45.499 55.484 45.2433 55.484 44.7492C55.484 44.2552 55.484 43.6391 55.484 42.8893C55.484 42.1395 55.4899 41.3374 55.4957 40.4714C55.5015 39.6054 55.5073 38.7975 55.5073 38.0535C55.5073 37.3037 55.5073 36.4319 55.5073 35.4263H58.6575V54.9788H58.6634Z" fill="#982420"/>
<path d="M65.0918 35.3391C65.8242 35.3391 66.4577 35.4205 66.9924 35.5832C67.5272 35.7459 67.9689 36.0249 68.3292 36.4202C68.6896 36.8096 68.9686 37.3269 69.172 37.9662C69.3755 38.6056 69.5208 39.4077 69.6079 40.3725C69.6544 40.791 69.6893 41.3897 69.7068 42.1627C69.73 42.9357 69.7416 43.7552 69.7533 44.6097C69.7591 45.4699 69.7591 46.3126 69.7416 47.1554C69.7242 47.9924 69.7068 48.6899 69.6719 49.2362C69.6138 50.3115 69.4975 51.2182 69.3231 51.9564C69.1488 52.6945 68.8872 53.2932 68.5385 53.7465C68.1839 54.1999 67.7248 54.5312 67.1552 54.7288C66.5856 54.9322 65.8649 55.031 64.9988 55.031C64.8477 55.031 64.7024 55.0252 64.5629 55.0194C64.4176 55.0078 64.2839 54.9962 64.1444 54.9787C63.3016 54.8683 62.6507 54.6009 62.1741 54.1708C61.7033 53.7407 61.3487 53.1653 61.1162 52.4504C60.8837 51.7297 60.7384 50.8695 60.6803 49.8639C60.6222 48.8584 60.5815 47.7192 60.5699 46.4463C60.5408 44.5864 60.5524 43.0055 60.6164 41.7035C60.6745 40.4016 60.8198 39.3147 61.0465 38.4487C61.2732 37.5826 61.5987 36.9142 62.0346 36.4492C62.4705 35.9843 63.0459 35.653 63.7666 35.4495C63.9177 35.4147 64.1096 35.3856 64.3537 35.3682C64.592 35.3449 64.8361 35.3391 65.0918 35.3391ZM65.7021 51.1775C65.8649 51.0496 65.9869 50.7532 66.0625 50.2882C66.138 49.8233 66.1903 49.2885 66.2194 48.6899C66.2485 48.0854 66.2659 47.4693 66.2659 46.8299C66.2659 46.1906 66.2659 45.6442 66.2659 45.1909C66.2659 44.4992 66.2659 43.8192 66.2659 43.1508C66.2659 42.4882 66.2485 41.8837 66.2078 41.3432C66.1729 40.8084 66.1148 40.3434 66.0392 39.9598C65.9637 39.5762 65.8416 39.3205 65.6789 39.1926C65.5742 39.0822 65.3999 39.0299 65.1616 39.0299C64.9523 39.0299 64.778 39.0822 64.6443 39.1926C64.4932 39.3205 64.3769 39.582 64.2955 39.9715C64.2142 40.3667 64.1502 40.8317 64.1154 41.3664C64.0805 41.9069 64.0572 42.4998 64.0572 43.1566C64.0572 43.8134 64.0572 44.4876 64.0572 45.1793C64.0572 46.1267 64.0631 46.9229 64.0689 47.5565C64.0747 48.1958 64.0921 48.7305 64.127 49.1548C64.156 49.5849 64.1967 49.9279 64.2374 50.1778C64.2839 50.4335 64.3362 50.6428 64.3944 50.8055C64.4699 50.9683 64.5803 51.0961 64.7315 51.1891C64.8826 51.2821 65.0395 51.3286 65.2023 51.3286C65.3824 51.3403 65.551 51.2821 65.7021 51.1775Z" fill="#982420"/>
<path d="M76.9896 54.9788C76.9431 54.3743 76.9141 53.6827 76.9024 52.898C76.885 52.1134 76.8559 51.352 76.8036 50.6138C76.7513 49.8756 76.6641 49.2247 76.5421 48.6609C76.42 48.0971 76.2398 47.7483 76.0015 47.6205H74.8333C74.8333 48.3528 74.8333 48.9864 74.8333 49.5327C74.8333 50.0791 74.8275 50.6661 74.8217 51.2996C74.8158 51.9274 74.81 52.5144 74.81 53.0666C74.81 53.6129 74.81 54.2523 74.81 54.9788H71.6598V35.4205H72.5607H73.6185C74.5485 35.4205 75.4029 35.467 76.1817 35.56C76.9606 35.653 77.629 35.9088 78.1811 36.3272C78.7333 36.7457 79.1634 37.3909 79.4657 38.2569C79.7679 39.1229 79.8958 40.3319 79.8493 41.8838C79.8318 42.7207 79.7737 43.395 79.6691 43.9064C79.5645 44.4179 79.454 44.8132 79.332 45.098C79.2099 45.3828 79.0937 45.592 78.9716 45.7257C78.8495 45.8652 78.7624 45.9756 78.7042 46.0686C79.0937 46.5045 79.3727 47.0451 79.5354 47.6844C79.6981 48.3238 79.8144 49.027 79.8725 49.8059C79.9306 50.5789 79.9713 51.4101 79.9829 52.2935C80.0004 53.177 80.0527 54.0779 80.1399 54.9904H76.9896V54.9788ZM76.5188 43.7379C76.577 43.517 76.6235 43.2264 76.6525 42.8602C76.6816 42.4941 76.6932 42.1105 76.6874 41.7094C76.6816 41.3084 76.6525 40.9189 76.6002 40.547C76.5479 40.175 76.4665 39.8844 76.3619 39.6867C76.2573 39.4891 76.1236 39.338 75.9667 39.2334C75.8097 39.1346 75.6528 39.0648 75.4959 39.03C75.3389 38.9951 75.1995 38.9776 75.0774 38.9776C74.9553 38.9776 74.874 38.9776 74.8275 38.9776C74.8275 39.8553 74.8275 40.6748 74.8275 41.442C74.8449 42.0814 74.8507 42.7149 74.8507 43.3427C74.8507 43.9704 74.8449 44.4121 74.8275 44.6678C74.9786 44.6678 75.1413 44.662 75.3099 44.6562C75.4843 44.6446 75.647 44.6155 75.8039 44.5632C75.9609 44.5109 76.1062 44.4179 76.234 44.2901C76.3619 44.1564 76.4607 43.9704 76.5188 43.7379Z" fill="#982420"/>
<path d="M84.0049 54.979C84.0049 54.9093 84.0049 54.4791 84.0049 53.6945C84.0049 52.9098 84.0049 51.9508 84.0049 50.8116C84.0049 49.6724 83.9991 48.4402 83.9932 47.1208C83.9874 45.8014 83.9816 44.5692 83.9816 43.43C83.9816 42.2908 83.9816 41.326 83.9816 40.5471C83.9816 39.7625 83.9816 39.3324 83.9816 39.2626H81.1278V35.4324H89.9915V39.2045H87.1551V54.9848H84.0049V54.979Z" fill="#982420"/>
<path d="M96.8497 54.9788V47.2892H94.6933V54.973H91.5431V35.4205H94.6933C94.6933 35.4961 94.6933 35.7286 94.6933 36.1296C94.6933 36.5307 94.6933 37.0189 94.6933 37.5943C94.6933 38.1697 94.6992 38.7858 94.705 39.4426C94.7108 40.0994 94.7166 40.7155 94.7166 41.2909C94.7166 41.8663 94.7166 42.3604 94.7166 42.7672C94.7166 43.1799 94.7166 43.4182 94.7166 43.4938H96.8555V35.4205H100.006V54.9788H96.8497Z" fill="#982420"/>
<path d="M59.5989 59.0187V78.5769H56.4487V70.0678C56.4487 70.1433 56.4196 70.3933 56.3673 70.8176C56.315 71.2477 56.251 71.7592 56.1755 72.3636C56.0999 72.9681 56.0244 73.6133 55.9372 74.3049C55.8558 74.9966 55.7802 75.6476 55.7105 76.2462C55.6407 76.8507 55.5826 77.3622 55.5303 77.7923C55.478 78.2224 55.4431 78.4723 55.4315 78.5421H53.9959C53.6181 78.5421 53.4321 78.5246 53.4321 78.4898C53.4321 78.4549 53.403 78.2224 53.3507 77.7923C53.2984 77.3622 53.2345 76.8333 53.1589 76.2055C53.0833 75.5778 53.002 74.9036 52.909 74.1829C52.8218 73.4622 52.7346 72.7937 52.6591 72.1718C52.5835 71.5499 52.4963 70.8234 52.3917 69.9864C52.3743 69.9864 52.3626 70.155 52.3568 70.4921C52.351 70.8292 52.3452 71.2709 52.3452 71.8173C52.3452 72.3636 52.3452 72.9681 52.3452 73.6365C52.3452 74.3049 52.3452 74.9559 52.3452 75.5894C52.3452 76.2288 52.3452 76.8158 52.3452 77.3564C52.3452 77.8969 52.3452 78.298 52.3452 78.5711H49.1949V59.0187H52.5254C52.7172 60.0242 52.8857 60.896 53.0194 61.6458C53.1531 62.3956 53.2984 63.2035 53.4553 64.0637C53.6123 64.9297 53.7634 65.7318 53.9029 66.47C54.0424 67.2082 54.1586 67.8301 54.2516 68.3299C54.3388 68.8298 54.3911 69.0913 54.4085 69.1088C54.426 69.1088 54.4783 68.8646 54.5655 68.3822C54.6527 67.8998 54.7689 67.2953 54.9026 66.563C55.0363 65.8365 55.1816 65.0344 55.3385 64.1683C55.4954 63.3023 55.6407 62.4886 55.7744 61.733C55.9081 60.9774 56.0244 60.3439 56.1232 59.8324C56.222 59.3209 56.2685 59.0477 56.2685 59.0129H59.5989V59.0187Z" fill="#020203"/>
<path d="M67.2656 70.4804H66.0276L64.8128 70.5094V74.7757C64.9465 74.7757 65.1557 74.7757 65.4405 74.7757C65.7253 74.7757 66.0392 74.7757 66.3763 74.7757C66.7134 74.7757 67.0505 74.7815 67.3877 74.7873C67.7248 74.7989 68.0154 74.7989 68.2537 74.7989V78.5711H61.6161V59.0186H68.2537V62.7908H64.7663V66.7024H67.2656V70.4804Z" fill="#020203"/>
<path d="M75.4318 78.5769C75.4144 78.5246 75.3969 78.3676 75.3621 78.1119C75.333 77.8561 75.2981 77.5714 75.2633 77.2633C75.2284 76.9553 75.1877 76.6414 75.1528 76.3333C75.1179 76.0253 75.0831 75.7754 75.054 75.5952H72.6012C72.5838 75.6882 72.5664 75.8742 72.5315 76.1532C72.5024 76.438 72.4617 76.7402 72.4211 77.0715C72.3746 77.397 72.3397 77.7108 72.3106 78.0015C72.2816 78.2921 72.2583 78.4839 72.2409 78.5769H69.0674C69.6544 74.95 70.1833 71.7126 70.6658 68.8646C70.8576 67.644 71.0552 66.4467 71.2528 65.2842C71.4446 64.116 71.619 63.0756 71.7701 62.1514C71.9212 61.2331 72.0374 60.4833 72.1304 59.9079C72.2176 59.3325 72.2641 59.036 72.2641 59.0186H75.4376C76.0247 62.628 76.5478 65.8596 77.0127 68.7018C77.2104 69.905 77.3964 71.0907 77.5882 72.2589C77.7742 73.4272 77.9427 74.4734 78.0938 75.4034C78.2449 76.3333 78.367 77.0831 78.4658 77.6585C78.5646 78.2339 78.6111 78.5362 78.6111 78.5769H75.4318ZM73.6998 66.4292C73.6533 66.7373 73.6068 67.0976 73.5544 67.4987C73.5021 67.8997 73.4556 68.3124 73.4091 68.7309C73.2871 69.7132 73.1534 70.8291 73.0023 72.0671H74.6413C74.4902 70.8291 74.3565 69.7248 74.2345 68.76C74.188 68.3415 74.1473 67.9346 74.1008 67.5452C74.0543 67.1558 74.0136 66.8012 73.9787 66.4932C73.9439 66.1851 73.8916 65.8306 73.8334 65.4237C73.7869 65.7841 73.7463 66.1212 73.6998 66.4292Z" fill="#020203"/>
<path d="M80.6685 78.5765C80.6685 78.5067 80.6685 78.0766 80.6685 77.292C80.6685 76.5073 80.6685 75.5483 80.6685 74.4091C80.6685 73.2699 80.6626 72.0377 80.6568 70.7183C80.651 69.3989 80.6452 68.1667 80.6452 67.0275C80.6452 65.8883 80.6452 64.9235 80.6452 64.1446C80.6452 63.36 80.6452 62.9298 80.6452 62.8601H77.7914V59.0298H86.6551V62.802H83.8187V78.5823H80.6685V78.5765Z" fill="#020203"/>
<path d="M91.9151 62.9008C91.8395 62.7206 91.7116 62.6276 91.5314 62.6276C91.3978 62.6276 91.2815 62.6799 91.1943 62.7904C91.0723 62.9182 90.9967 63.1217 90.9677 63.4065C90.9386 63.6913 90.9328 63.9877 90.956 64.3074C90.9793 64.627 91.0258 64.9409 91.1013 65.2489C91.1769 65.557 91.2583 65.8069 91.3513 65.9871C91.5431 66.3126 91.7988 66.6323 92.1069 66.9461C92.4149 67.2542 92.7404 67.5739 93.0833 67.9052C93.4262 68.2306 93.7633 68.591 94.0946 68.9862C94.4259 69.3815 94.6991 69.829 94.9258 70.3405C95.2397 70.9973 95.4373 71.7703 95.5128 72.6538C95.5884 73.5372 95.5303 74.3975 95.3443 75.2228C95.1583 76.0539 94.8212 76.7805 94.333 77.3966C93.8447 78.0185 93.1996 78.4021 92.3858 78.5474C92.2347 78.5648 92.0894 78.5765 91.9499 78.5881C91.8046 78.5997 91.6535 78.5997 91.4908 78.5997C90.6073 78.5997 89.8924 78.4195 89.3518 78.065C88.8113 77.7104 88.3986 77.228 88.1138 76.6177C87.829 76.0075 87.6372 75.2867 87.5384 74.4556C87.4396 73.6244 87.3873 72.7468 87.3699 71.8168H90.834C90.8514 72.1074 90.8572 72.4329 90.8572 72.7875C90.8572 73.142 90.8747 73.4733 90.9037 73.7872C90.9328 74.0952 90.9909 74.3568 91.0723 74.566C91.1536 74.7752 91.2873 74.8799 91.4675 74.8799C91.6767 74.8799 91.8162 74.7811 91.886 74.5776C91.9557 74.38 91.9848 73.9848 91.9848 73.4036C91.9848 73.0781 91.9674 72.7816 91.9383 72.5259C91.9092 72.2702 91.8337 72.0202 91.7116 71.7761C91.5896 71.532 91.4094 71.2705 91.1711 70.9973C90.9328 70.7241 90.6073 70.4044 90.2062 70.0383C89.7238 69.6023 89.3228 69.1839 88.9915 68.7944C88.6602 68.405 88.3928 67.9807 88.1836 67.539C87.9743 67.0914 87.8174 66.5974 87.7244 66.051C87.6256 65.5047 87.5791 64.877 87.5791 64.1621C87.5965 62.4649 87.9104 61.1687 88.5265 60.2795C89.1426 59.3844 90.1481 58.9368 91.5431 58.9368C92.5486 58.9368 93.3565 59.2274 93.9726 59.8145C94.4201 60.233 94.7572 60.7561 94.9723 61.3896C95.1873 62.0173 95.3443 62.6334 95.4315 63.2379C95.5187 63.8424 95.5651 64.3597 95.5651 64.7956C95.5651 65.2315 95.5651 65.4698 95.5651 65.5047H92.1475C92.101 64.7782 92.0778 64.2202 92.0778 63.8366C92.072 63.4471 92.0197 63.1391 91.9151 62.9008Z" fill="#020203"/>
<path d="M99.93 1V5.69631H49.2064V1H99.93Z" fill="#982420"/>
<path d="M99.93 84.7254V89.4218H49.2064V84.7254H99.93Z" fill="#020203"/>
<path fill-rule="evenodd" clip-rule="evenodd" d="M45.1497 89.422V1.01162L45.1439 1L37.1869 16.1758C36.4196 18.0881 34.9026 17.6928 33.0078 16.943L27.3235 13.9032L31.8628 37.4255C32.6301 41.5929 29.5902 41.5929 28.4627 39.7097L18.2098 28.3235L16.6928 34.0079C16.6928 34.7576 15.5478 35.5423 14.4202 35.5423L1.8948 32.8628L5.32403 45.3883C6.07382 48.0503 6.45161 49.1953 4.55682 49.9451L0 52.2177L21.6274 70.4275C22.3947 71.1947 23.1444 72.3397 22.7725 73.4673L20.8777 79.9189C28.079 79.1633 34.9085 78.4136 42.4993 77.6463C42.8771 77.6463 44.0163 78.0358 44.0163 78.7914L43.2491 89.422H45.1497Z" fill="#982420"/>
</g>
<defs>
<clipPath id="clip0">
<rect width="100" height="90" fill="white"/>
</clipPath>
</defs>
</svg>
